<?xml version="1.0" standalone="no"?><!DOCTYPE svg PUBLIC "-//W3C//DTD SVG 1.1//EN" "http://www.w3.org/Graphics/SVG/1.1/DTD/svg11.dtd"><svg t="1719382391801" class="icon" viewBox="0 0 1024 1024" version="1.1" xmlns="http://www.w3.org/2000/svg" p-id="11123" xmlns:xlink="http://www.w3.org/1999/xlink" width="200" height="200"><path d="M1013.49888 192.13312l0-50.2016c0-133.98528-115.46112-133.98528-133.98528-133.98528l-49.9968 0c-1.69472-0.06656-3.25632-0.47616-5.02272-0.47616L197.31968 7.47008c-1.69472 0-3.32288 0.47616-5.02272 0.47616l-49.9968 0c-18.51904 0-133.98528 0-133.98528 133.98528l0 50.13504c-0.06656 1.62816-0.47616 3.18976-0.47616 4.81792l0 627.1744c0 1.62816 0.47616 3.18976 0.47616 4.81792l0 50.13504c0 133.98528 133.98528 133.98528 133.98528 133.98528l49.9968 0c1.69472 0.06656 3.25632 0.47616 4.95104 0.47616l627.1744 0c1.69472 0 3.25632-0.47616 4.95104-0.47616l50.06848 0c38.67136 0 65.87392-11.25888 85.4784-27.20256 1.22368-0.95232 2.5088-1.89952 3.73248-2.85184 4.47488-3.93216 8.61696-8.1408 12.2112-12.48256 1.01888-1.29024 1.89952-2.57536 2.85184-3.93216 29.57824-38.66624 29.78304-87.58272 29.78304-87.58272l0-50.2016c0.06656-1.62816 0.47616-3.1232 0.47616-4.81792L1013.97504 196.8128C1013.97504 195.32288 1013.56544 193.76128 1013.49888 192.13312zM162.11456 874.5984 61.0304 874.5984l0-101.07904 101.07904 0L162.10944 874.5984zM162.11456 717.824 61.0304 717.824l0-101.07904 101.07904 0L162.10944 717.824zM162.11456 561.04448 61.0304 561.04448 61.0304 459.96544l101.07904 0L162.10944 561.04448zM162.11456 404.27008 61.0304 404.27008 61.0304 303.18592l101.07904 0L162.10944 404.27008zM162.11456 247.49056 61.0304 247.49056 61.0304 146.41152l101.07904 0L162.10944 247.49056zM794.98752 899.63008 224.18432 899.63008 224.18432 121.4464l570.8032 0L794.98752 899.63008zM952.30464 873.4464l-101.07904 0 0-101.07904 101.07904 0L952.30464 873.4464zM952.30464 716.66688l-101.07904 0 0-101.07904 101.07904 0L952.30464 716.66688zM952.30464 559.89248l-101.07904 0L851.2256 458.81344l101.07904 0L952.30464 559.89248zM952.30464 403.11296l-101.07904 0L851.2256 302.03392l101.07904 0L952.30464 403.11296zM952.30464 246.33856l-101.07904 0L851.2256 145.25952l101.07904 0L952.30464 246.33856z" fill="currentColor" p-id="11124"></path><path d="M452.46464 680.91904 452.46464 680.91904 646.7584 543.744c20.48512-14.72 20.48512-51.42016 0-66.14528L452.46464 340.02432c-20.48512-14.72-54.272-4.13696-54.272 25.23648l0 290.82624C398.19264 685.46048 432.04608 695.57248 452.46464 680.91904z" fill="currentColor" p-id="11125"></path></svg>