<?xml version="1.0" standalone="no"?><!DOCTYPE svg PUBLIC "-//W3C//DTD SVG 1.1//EN" "http://www.w3.org/Graphics/SVG/1.1/DTD/svg11.dtd"><svg t="1719381188729" class="icon" viewBox="0 0 1024 1024" version="1.1" xmlns="http://www.w3.org/2000/svg" p-id="6448" xmlns:xlink="http://www.w3.org/1999/xlink" width="200" height="200"><path d="M541.867 556.8s0-66.133-32-68.267c-32-4.266-132.267 0-132.267 0v-204.8h149.333s-2.133-68.266-29.866-68.266h-243.2l40.533-108.8s-59.733 4.266-83.2 42.666C189.867 187.733 121.6 384 121.6 384s23.467 10.667 61.867-19.2c38.4-27.733 51.2-78.933 51.2-78.933l70.4-4.267 2.133 206.933s-125.867-2.133-149.333 0c-25.6 2.134-38.4 68.267-38.4 68.267h189.866s-17.066 117.333-64 198.4C196.267 840.533 102.4 906.667 102.4 906.667S168.533 934.4 234.667 896s113.066-206.933 113.066-206.933L499.2 878.933s12.8-89.6-2.133-117.333C480 736 390.4 633.6 390.4 633.6L352 667.733l27.733-113.066 162.134 2.133z m38.4-345.6l-2.134 614.4H640l21.333 74.667 108.8-74.667H921.6V211.2H580.267z m273.066 546.133h-70.4l-89.6 68.267-19.2-68.267h-19.2V281.6h198.4v475.733z" fill="currentColor" p-id="6449"></path></svg>